<?xml version="1.0" encoding="us-ascii" standalone="no"?><svg xmlns="http://www.w3.org/2000/svg" xmlns:xlink="http://www.w3.org/1999/xlink" contentStyleType="text/css" height="635px" preserveAspectRatio="none" style="width:1181px;height:635px;background:#FFFFFF;" version="1.1" viewBox="0 0 1181 635" width="1181px" zoomAndPan="magnify"><defs/><g><rect fill="#FFFFFF" height="286.3281" style="stroke:#181818;stroke-width:1.0;" width="10" x="253" y="112.4297"/><rect fill="#FFFFFF" height="228.0625" style="stroke:#181818;stroke-width:1.0;" width="10" x="455" y="141.5625"/><rect fill="#FFFFFF" height="169.7969" style="stroke:#181818;stroke-width:1.0;" width="10" x="740" y="170.6953"/><rect fill="#FFFFFF" height="53.2656" style="stroke:#181818;stroke-width:1.0;" width="10" x="997" y="199.8281"/><rect fill="#FFFFFF" height="29.1328" style="stroke:#181818;stroke-width:1.0;" width="10" x="1123" y="282.2266"/><rect fill="none" height="323.2656" style="stroke:#000000;stroke-width:1.5;" width="1164" x="10" y="214.8281"/><line style="stroke:#181818;stroke-width:0.5;stroke-dasharray:5.0,5.0;" x1="39" x2="39" y1="81.2969" y2="555.0938"/><line style="stroke:#181818;stroke-width:0.5;stroke-dasharray:5.0,5.0;" x1="257.5" x2="257.5" y1="81.2969" y2="555.0938"/><line style="stroke:#181818;stroke-width:0.5;stroke-dasharray:5.0,5.0;" x1="459.5" x2="459.5" y1="81.2969" y2="555.0938"/><line style="stroke:#181818;stroke-width:0.5;stroke-dasharray:5.0,5.0;" x1="744.5" x2="744.5" y1="81.2969" y2="555.0938"/><line style="stroke:#181818;stroke-width:0.5;stroke-dasharray:5.0,5.0;" x1="1002" x2="1002" y1="81.2969" y2="555.0938"/><line style="stroke:#181818;stroke-width:0.5;stroke-dasharray:5.0,5.0;" x1="1128" x2="1128" y1="81.2969" y2="555.0938"/><text fill="#000000" font-family="sans-serif" font-size="14" lengthAdjust="spacing" textLength="32" x="20" y="77.9951">User</text><ellipse cx="39" cy="13.5" fill="#E2E2F0" rx="8" ry="8" style="stroke:#181818;stroke-width:0.5;"/><path d="M39,21.5 L39,48.5 M26,29.5 L52,29.5 M39,48.5 L26,63.5 M39,48.5 L52,63.5 " fill="none" style="stroke:#181818;stroke-width:0.5;"/><text fill="#000000" font-family="sans-serif" font-size="14" lengthAdjust="spacing" textLength="32" x="20" y="567.0889">User</text><ellipse cx="39" cy="578.8906" fill="#E2E2F0" rx="8" ry="8" style="stroke:#181818;stroke-width:0.5;"/><path d="M39,586.8906 L39,613.8906 M26,594.8906 L52,594.8906 M39,613.8906 L26,628.8906 M39,613.8906 L52,628.8906 " fill="none" style="stroke:#181818;stroke-width:0.5;"/><rect fill="#E2E2F0" height="30.2969" rx="2.5" ry="2.5" style="stroke:#181818;stroke-width:0.5;" width="111" x="202.5" y="50"/><text fill="#000000" font-family="sans-serif" font-size="14" lengthAdjust="spacing" textLength="97" x="209.5" y="69.9951">DiscordServer</text><rect fill="#E2E2F0" height="30.2969" rx="2.5" ry="2.5" style="stroke:#181818;stroke-width:0.5;" width="111" x="202.5" y="554.0938"/><text fill="#000000" font-family="sans-serif" font-size="14" lengthAdjust="spacing" textLength="97" x="209.5" y="574.0889">DiscordServer</text><rect fill="#E2E2F0" height="30.2969" rx="2.5" ry="2.5" style="stroke:#181818;stroke-width:0.5;" width="91" x="414.5" y="50"/><text fill="#000000" font-family="sans-serif" font-size="14" lengthAdjust="spacing" textLength="77" x="421.5" y="69.9951">DiscordBot</text><rect fill="#E2E2F0" height="30.2969" rx="2.5" ry="2.5" style="stroke:#181818;stroke-width:0.5;" width="91" x="414.5" y="554.0938"/><text fill="#000000" font-family="sans-serif" font-size="14" lengthAdjust="spacing" textLength="77" x="421.5" y="574.0889">DiscordBot</text><rect fill="#E2E2F0" height="30.2969" rx="2.5" ry="2.5" style="stroke:#181818;stroke-width:0.5;" width="185" x="652.5" y="50"/><text fill="#000000" font-family="sans-serif" font-size="14" lengthAdjust="spacing" textLength="171" x="659.5" y="69.9951">Bot Mamagement Server</text><rect fill="#E2E2F0" height="30.2969" rx="2.5" ry="2.5" style="stroke:#181818;stroke-width:0.5;" width="185" x="652.5" y="554.0938"/><text fill="#000000" font-family="sans-serif" font-size="14" lengthAdjust="spacing" textLength="171" x="659.5" y="574.0889">Bot Mamagement Server</text><rect fill="#E2E2F0" height="30.2969" rx="2.5" ry="2.5" style="stroke:#181818;stroke-width:0.5;" width="160" x="922" y="50"/><text fill="#000000" font-family="sans-serif" font-size="14" lengthAdjust="spacing" textLength="146" x="929" y="69.9951">Azure Content Safety</text><rect fill="#E2E2F0" height="30.2969" rx="2.5" ry="2.5" style="stroke:#181818;stroke-width:0.5;" width="160" x="922" y="554.0938"/><text fill="#000000" font-family="sans-serif" font-size="14" lengthAdjust="spacing" textLength="146" x="929" y="574.0889">Azure Content Safety</text><text fill="#000000" font-family="sans-serif" font-size="14" lengthAdjust="spacing" textLength="66" x="1092" y="77.9951">Database</text><path d="M1110,29 C1110,19 1128,19 1128,19 C1128,19 1146,19 1146,29 L1146,55 C1146,65 1128,65 1128,65 C1128,65 1110,65 1110,55 L1110,29 " fill="#E2E2F0" style="stroke:#181818;stroke-width:1.5;"/><path d="M1110,29 C1110,39 1128,39 1128,39 C1128,39 1146,39 1146,29 " fill="none" style="stroke:#181818;stroke-width:1.5;"/><text fill="#000000" font-family="sans-serif" font-size="14" lengthAdjust="spacing" textLength="66" x="1092" y="567.0889">Database</text><path d="M1110,580.3906 C1110,570.3906 1128,570.3906 1128,570.3906 C1128,570.3906 1146,570.3906 1146,580.3906 L1146,606.3906 C1146,616.3906 1128,616.3906 1128,616.3906 C1128,616.3906 1110,616.3906 1110,606.3906 L1110,580.3906 " fill="#E2E2F0" style="stroke:#181818;stroke-width:1.5;"/><path d="M1110,580.3906 C1110,590.3906 1128,590.3906 1128,590.3906 C1128,590.3906 1146,590.3906 1146,580.3906 " fill="none" style="stroke:#181818;stroke-width:1.5;"/><rect fill="#FFFFFF" height="286.3281" style="stroke:#181818;stroke-width:1.0;" width="10" x="253" y="112.4297"/><rect fill="#FFFFFF" height="228.0625" style="stroke:#181818;stroke-width:1.0;" width="10" x="455" y="141.5625"/><rect fill="#FFFFFF" height="169.7969" style="stroke:#181818;stroke-width:1.0;" width="10" x="740" y="170.6953"/><rect fill="#FFFFFF" height="53.2656" style="stroke:#181818;stroke-width:1.0;" width="10" x="997" y="199.8281"/><rect fill="#FFFFFF" height="29.1328" style="stroke:#181818;stroke-width:1.0;" width="10" x="1123" y="282.2266"/><polygon fill="#181818" points="241,108.4297,251,112.4297,241,116.4297,245,112.4297" style="stroke:#181818;stroke-width:1.0;"/><line style="stroke:#181818;stroke-width:1.0;" x1="39" x2="247" y1="112.4297" y2="112.4297"/><text fill="#000000" font-family="sans-serif" font-size="13" lengthAdjust="spacing" textLength="94" x="46" y="107.3638">Send Message</text><polygon fill="#181818" points="443,137.5625,453,141.5625,443,145.5625,447,141.5625" style="stroke:#181818;stroke-width:1.0;"/><line style="stroke:#181818;stroke-width:1.0;" x1="263" x2="449" y1="141.5625" y2="141.5625"/><text fill="#000000" font-family="sans-serif" font-size="13" lengthAdjust="spacing" textLength="135" x="270" y="136.4966">Sends User Message</text><polygon fill="#181818" points="728,166.6953,738,170.6953,728,174.6953,732,170.6953" style="stroke:#181818;stroke-width:1.0;"/><line style="stroke:#181818;stroke-width:1.0;" x1="465" x2="734" y1="170.6953" y2="170.6953"/><text fill="#000000" font-family="sans-serif" font-size="13" lengthAdjust="spacing" textLength="135" x="472" y="165.6294">Sends User Message</text><polygon fill="#181818" points="985,195.8281,995,199.8281,985,203.8281,989,199.8281" style="stroke:#181818;stroke-width:1.0;"/><line style="stroke:#181818;stroke-width:1.0;" x1="750" x2="991" y1="199.8281" y2="199.8281"/><text fill="#000000" font-family="sans-serif" font-size="13" lengthAdjust="spacing" textLength="119" x="757" y="194.7622">Send Text Content</text><path d="M10,214.8281 L74,214.8281 L74,221.9609 L64,231.9609 L10,231.9609 L10,214.8281 " fill="#EEEEEE" style="stroke:#000000;stroke-width:1.5;"/><rect fill="none" height="323.2656" style="stroke:#000000;stroke-width:1.5;" width="1164" x="10" y="214.8281"/><text fill="#000000" font-family="sans-serif" font-size="13" font-weight="bold" lengthAdjust="spacing" textLength="19" x="25" y="227.895">alt</text><text fill="#000000" font-family="sans-serif" font-size="11" font-weight="bold" lengthAdjust="spacing" textLength="140" x="89" y="227.0386">[Message Moderated]</text><polygon fill="#181818" points="761,249.0938,751,253.0938,761,257.0938,757,253.0938" style="stroke:#181818;stroke-width:1.0;"/><line style="stroke:#181818;stroke-width:1.0;stroke-dasharray:2.0,2.0;" x1="755" x2="1001" y1="253.0938" y2="253.0938"/><text fill="#000000" font-family="sans-serif" font-size="13" lengthAdjust="spacing" textLength="223" x="767" y="248.0278">Moderation Required (Categorised)</text><polygon fill="#181818" points="1111,278.2266,1121,282.2266,1111,286.2266,1115,282.2266" style="stroke:#181818;stroke-width:1.0;"/><line style="stroke:#181818;stroke-width:1.0;" x1="750" x2="1117" y1="282.2266" y2="282.2266"/><text fill="#000000" font-family="sans-serif" font-size="13" lengthAdjust="spacing" textLength="94" x="757" y="277.1606">Store Violation</text><polygon fill="#181818" points="761,307.3594,751,311.3594,761,315.3594,757,311.3594" style="stroke:#181818;stroke-width:1.0;"/><line style="stroke:#181818;stroke-width:1.0;stroke-dasharray:2.0,2.0;" x1="755" x2="1127" y1="311.3594" y2="311.3594"/><text fill="#000000" font-family="sans-serif" font-size="13" lengthAdjust="spacing" textLength="114" x="767" y="306.2935">Success Message</text><polygon fill="#181818" points="476,336.4922,466,340.4922,476,344.4922,472,340.4922" style="stroke:#181818;stroke-width:1.0;"/><line style="stroke:#181818;stroke-width:1.0;stroke-dasharray:2.0,2.0;" x1="470" x2="744" y1="340.4922" y2="340.4922"/><text fill="#000000" font-family="sans-serif" font-size="13" lengthAdjust="spacing" textLength="251" x="482" y="335.4263">Moderation Method (Remove Message)</text><polygon fill="#181818" points="274,365.625,264,369.625,274,373.625,270,369.625" style="stroke:#181818;stroke-width:1.0;"/><line style="stroke:#181818;stroke-width:1.0;stroke-dasharray:2.0,2.0;" x1="268" x2="459" y1="369.625" y2="369.625"/><text fill="#000000" font-family="sans-serif" font-size="13" lengthAdjust="spacing" textLength="168" x="280" y="364.5591">Remove Message and Log</text><polygon fill="#181818" points="50,394.7578,40,398.7578,50,402.7578,46,398.7578" style="stroke:#181818;stroke-width:1.0;"/><line style="stroke:#181818;stroke-width:1.0;stroke-dasharray:2.0,2.0;" x1="44" x2="257" y1="398.7578" y2="398.7578"/><text fill="#000000" font-family="sans-serif" font-size="13" lengthAdjust="spacing" textLength="190" x="56" y="393.6919">Display "Message Moderated"</text><line style="stroke:#000000;stroke-width:1.0;stroke-dasharray:2.0,2.0;" x1="10" x2="1174" y1="407.7578" y2="407.7578"/><text fill="#000000" font-family="sans-serif" font-size="11" font-weight="bold" lengthAdjust="spacing" textLength="166" x="15" y="417.9683">[Message Not Moderated]</text><polygon fill="#181818" points="756,438.6953,746,442.6953,756,446.6953,752,442.6953" style="stroke:#181818;stroke-width:1.0;"/><line style="stroke:#181818;stroke-width:1.0;stroke-dasharray:2.0,2.0;" x1="750" x2="1001" y1="442.6953" y2="442.6953"/><text fill="#000000" font-family="sans-serif" font-size="13" lengthAdjust="spacing" textLength="86" x="762" y="437.6294">No Modertion</text><polygon fill="#181818" points="471,467.8281,461,471.8281,471,475.8281,467,471.8281" style="stroke:#181818;stroke-width:1.0;"/><line style="stroke:#181818;stroke-width:1.0;stroke-dasharray:2.0,2.0;" x1="465" x2="744" y1="471.8281" y2="471.8281"/><text fill="#000000" font-family="sans-serif" font-size="13" lengthAdjust="spacing" textLength="62" x="477" y="466.7622">No Action</text><polygon fill="#181818" points="269,496.9609,259,500.9609,269,504.9609,265,500.9609" style="stroke:#181818;stroke-width:1.0;"/><line style="stroke:#181818;stroke-width:1.0;stroke-dasharray:2.0,2.0;" x1="263" x2="459" y1="500.9609" y2="500.9609"/><text fill="#000000" font-family="sans-serif" font-size="13" lengthAdjust="spacing" textLength="62" x="275" y="495.895">No Action</text><polygon fill="#181818" points="50,526.0938,40,530.0938,50,534.0938,46,530.0938" style="stroke:#181818;stroke-width:1.0;"/><line style="stroke:#181818;stroke-width:1.0;stroke-dasharray:2.0,2.0;" x1="44" x2="257" y1="530.0938" y2="530.0938"/><text fill="#000000" font-family="sans-serif" font-size="13" lengthAdjust="spacing" textLength="71" x="56" y="525.0278">No Change</text><!--SRC=[TLExSi8m4Epr5HfNIS4FK6G6cpAcm4dwYtK1pHWVI38JylKvlOX5m9NjtRtRNTamEOBUwJCub3GAiUeT6HclTulvzku5Db344OpJlJx2w6IrrhOdepeqPpJLNQmcLtdnkYvXVYzREC0E3yZFQKJOKxTToLtzJ0PbGwCBLFX2Tmb3Lqqd53Zu18l1vNh-S3T4PWYHCYzUP15ZoLv69Lkqbiqngq03lOwSsCYSMNkOxJ_06V44TfsMlE6toxaOXy5bjcn9eU63Ki8RPubSvDa9qZJABPucRL39fuQvEpBQedeEahGiv-MDVDWeFpGDGIkAlgx3kwdlsSBCTHgLWi-Mj-ZsnAktUA0pPaNSxgjWnMsr9LK2T_1AkwWeQsQnRs_ftny7kCZgNpCLwt2mV-Cs_fjwtDk68dfDFy_58FyErrwY_HltDvm7XfdLx64CtV4X_m80]--></g></svg>